<?xml version="1.0" encoding="UTF-8"?>
<!DOCTYPE svg PUBLIC "-//W3C//DTD SVG 1.1//EN" "http://www.w3.org/Graphics/SVG/1.1/DTD/svg11.dtd">
<svg xmlns="http://www.w3.org/2000/svg" version="1.1" width="640px" height="512px" style="shape-rendering:geometricPrecision; text-rendering:geometricPrecision; image-rendering:optimizeQuality; fill-rule:evenodd; clip-rule:evenodd" xmlns:xlink="http://www.w3.org/1999/xlink">
<g><path style="opacity:0.982" fill="#fe0000" d="M 375.5,-0.5 C 380.833,-0.5 386.167,-0.5 391.5,-0.5C 410.315,6.10113 418.148,19.4345 415,39.5C 372,190.167 329,340.833 286,491.5C 281.593,501.766 274.093,508.433 263.5,511.5C 258.167,511.5 252.833,511.5 247.5,511.5C 228.606,504.717 220.773,491.384 224,471.5C 267,320.833 310,170.167 353,19.5C 357.407,9.2338 364.907,2.56714 375.5,-0.5 Z"/></g>
<g><path style="opacity:0.973" fill="#fe0000" d="M -0.5,263.5 C -0.5,258.167 -0.5,252.833 -0.5,247.5C 1.17822,242.482 3.67822,237.815 7,233.5C 44.8333,195.667 82.6667,157.833 120.5,120C 133.261,110.262 146.927,108.929 161.5,116C 175.252,126.941 179.086,140.774 173,157.5C 171.248,160.672 169.248,163.672 167,166.5C 137.32,196.014 107.82,225.68 78.5,255.5C 109.514,286.681 140.348,318.014 171,349.5C 179.625,367.3 176.458,382.466 161.5,395C 146.927,402.071 133.261,400.738 120.5,391C 82.6667,353.167 44.8333,315.333 7,277.5C 3.67822,273.185 1.17822,268.518 -0.5,263.5 Z"/></g>
<g><path style="opacity:0.973" fill="#fe0000" d="M 639.5,247.5 C 639.5,252.833 639.5,258.167 639.5,263.5C 637.735,269.022 634.902,274.022 631,278.5C 592.139,317.695 552.972,356.528 513.5,395C 494.565,404.208 479.065,400.375 467,383.5C 461.02,369.437 462.687,356.437 472,344.5C 501.68,314.986 531.18,285.32 560.5,255.5C 531.18,225.68 501.68,196.014 472,166.5C 462.262,153.739 460.929,140.073 468,125.5C 480.534,110.542 495.7,107.375 513.5,116C 554.667,155.833 595.167,196.333 635,237.5C 636.62,240.893 638.12,244.226 639.5,247.5 Z"/></g>
</svg>
