<?xml version="1.0" encoding="UTF-8"?>
<!DOCTYPE svg PUBLIC "-//W3C//DTD SVG 1.1//EN" "http://www.w3.org/Graphics/SVG/1.1/DTD/svg11.dtd">
<svg xmlns="http://www.w3.org/2000/svg" version="1.1" width="576px" height="512px" style="shape-rendering:geometricPrecision; text-rendering:geometricPrecision; image-rendering:optimizeQuality; fill-rule:evenodd; clip-rule:evenodd" xmlns:xlink="http://www.w3.org/1999/xlink">
<g><path style="opacity:0.992" fill="#fe0000" d="M 575.5,126.5 C 575.5,132.5 575.5,138.5 575.5,144.5C 569.112,164.124 555.612,175.124 535,177.5C 518.085,272.662 500.418,367.662 482,462.5C 477.339,471.249 470.172,476.749 460.5,479C 345.167,479.667 229.833,479.667 114.5,479C 100.792,475.292 92.6256,466.459 90,452.5C 73.4412,360.814 56.7745,269.147 40,177.5C 20.7664,175.757 7.2664,166.09 -0.5,148.5C -0.5,140.167 -0.5,131.833 -0.5,123.5C 8.36399,102.226 24.364,93.0593 47.5,96C 70.9808,103.795 81.1474,119.962 78,144.5C 76.1915,149.753 74.1915,154.753 72,159.5C 101.258,182.88 130.425,206.38 159.5,230C 177.955,241.709 193.788,238.875 207,221.5C 226,183.5 245,145.5 264,107.5C 264.667,106.5 264.667,105.5 264,104.5C 249.546,94.1514 243.879,80.1514 247,62.5C 256.162,37.1653 273.995,27.332 300.5,33C 320.9,42.2938 329.4,58.1271 326,80.5C 323.123,90.9281 317.289,99.2615 308.5,105.5C 328,144.5 347.5,183.5 367,222.5C 378.356,237.214 392.523,240.714 409.5,233C 440.318,208.093 471.318,183.426 502.5,159C 492.748,142.134 493.248,125.634 504,109.5C 517.271,95.5578 533.105,91.7244 551.5,98C 564.106,103.763 572.106,113.263 575.5,126.5 Z"/></g>
</svg>
