<?xml version="1.0" encoding="UTF-8"?>
<!DOCTYPE svg PUBLIC "-//W3C//DTD SVG 1.1//EN" "http://www.w3.org/Graphics/SVG/1.1/DTD/svg11.dtd">
<svg xmlns="http://www.w3.org/2000/svg" version="1.1" width="640px" height="512px" style="shape-rendering:geometricPrecision; text-rendering:geometricPrecision; image-rendering:optimizeQuality; fill-rule:evenodd; clip-rule:evenodd" xmlns:xlink="http://www.w3.org/1999/xlink">
<g><path style="opacity:0.991" fill="#fe0000" d="M 207.5,-0.5 C 218.167,-0.5 228.833,-0.5 239.5,-0.5C 293.548,8.7041 329.382,39.3708 347,91.5C 360.961,152.646 342.461,201.146 291.5,237C 255.526,257.471 217.859,261.138 178.5,248C 119.218,221.969 91.7184,176.469 96,111.5C 104.882,57.283 135.382,21.4497 187.5,4C 194.259,2.28494 200.925,0.784944 207.5,-0.5 Z"/></g>
<g><path style="opacity:0.993" fill="#fe0000" d="M 639.5,325.5 C 639.5,374.833 639.5,424.167 639.5,473.5C 633.833,493.167 621.167,505.833 601.5,511.5C 530.833,511.5 460.167,511.5 389.5,511.5C 369.849,506.015 357.349,493.348 352,473.5C 351.333,424.167 351.333,374.833 352,325.5C 357.167,305.667 369.667,293.167 389.5,288C 398.16,287.5 406.827,287.334 415.5,287.5C 415.333,256.498 415.5,225.498 416,194.5C 422.885,161.953 442.052,140.453 473.5,130C 521.709,121.352 554.543,139.852 572,185.5C 573.158,189.797 574.158,194.131 575,198.5C 575.5,228.165 575.667,257.831 575.5,287.5C 607.768,282.538 629.102,295.205 639.5,325.5 Z M 488.5,176.5 C 505.58,174.452 517.746,181.119 525,196.5C 525.945,200.114 526.612,203.781 527,207.5C 527.5,234.165 527.667,260.831 527.5,287.5C 506.167,287.5 484.833,287.5 463.5,287.5C 463.059,258.467 463.559,229.467 465,200.5C 468.349,187.985 476.182,179.985 488.5,176.5 Z M 488.5,368.5 C 505.58,366.452 517.746,373.119 525,388.5C 529.771,407.119 523.604,420.619 506.5,429C 487.881,433.771 474.381,427.604 466,410.5C 461.236,389.685 468.736,375.685 488.5,368.5 Z"/></g>
<g><path style="opacity:0.996" fill="#fe0000" d="M 336.5,511.5 C 232.833,511.5 129.167,511.5 25.5,511.5C 12.5,507.167 3.83333,498.5 -0.5,485.5C -0.5,476.5 -0.5,467.5 -0.5,458.5C 10.827,384.002 52.1603,334.502 123.5,310C 133.66,307.101 143.993,305.101 154.5,304C 203.192,303.039 251.858,303.372 300.5,305C 308.269,306.192 315.936,307.859 323.5,310C 323.957,310.414 324.291,310.914 324.5,311.5C 321.653,319.237 320.153,327.237 320,335.5C 319.333,378.167 319.333,420.833 320,463.5C 320.441,481.325 325.941,497.325 336.5,511.5 Z"/></g>
</svg>
