<?xml version="1.0" encoding="UTF-8"?>
<!DOCTYPE svg PUBLIC "-//W3C//DTD SVG 1.1//EN" "http://www.w3.org/Graphics/SVG/1.1/DTD/svg11.dtd">
<svg xmlns="http://www.w3.org/2000/svg" version="1.1" width="640px" height="512px" style="shape-rendering:geometricPrecision; text-rendering:geometricPrecision; image-rendering:optimizeQuality; fill-rule:evenodd; clip-rule:evenodd" xmlns:xlink="http://www.w3.org/1999/xlink">
<g><path style="opacity:0.991" fill="#fe0000" d="M 207.5,-0.5 C 218.167,-0.5 228.833,-0.5 239.5,-0.5C 293.548,8.7041 329.382,39.3708 347,91.5C 360.961,152.646 342.461,201.146 291.5,237C 254.411,257.871 215.744,261.204 175.5,247C 118.284,220.093 91.7839,174.926 96,111.5C 104.882,57.283 135.382,21.4497 187.5,4C 194.259,2.28494 200.925,0.784944 207.5,-0.5 Z"/></g>
<g><path style="opacity:0.984" fill="#fe0000" d="M 639.5,304.5 C 639.5,307.167 639.5,309.833 639.5,312.5C 630.772,319.045 621.438,324.879 611.5,330C 610.978,330.561 610.645,331.228 610.5,332C 612.949,345.534 613.116,359.034 611,372.5C 620.61,378.052 630.11,383.719 639.5,389.5C 639.5,392.5 639.5,395.5 639.5,398.5C 632.143,419.711 620.81,438.545 605.5,455C 602.97,456.422 600.303,456.755 597.5,456C 588.958,450.897 580.291,446.063 571.5,441.5C 565.873,445.32 560.206,449.153 554.5,453C 548.403,456.382 542.07,459.216 535.5,461.5C 534.668,472.485 534.168,483.485 534,494.5C 533.5,496.333 532.333,497.5 530.5,498C 506.847,503.971 483.18,503.971 459.5,498C 458.667,497.167 457.833,496.333 457,495.5C 456.5,484.172 456.333,472.838 456.5,461.5C 449.519,459.512 442.852,456.679 436.5,453C 430.794,449.153 425.127,445.32 419.5,441.5C 410.709,446.063 402.042,450.897 393.5,456C 390.697,456.755 388.03,456.422 385.5,455C 369.207,437.426 357.541,417.093 350.5,394C 350.934,391.684 351.934,389.684 353.5,388C 362.665,382.919 371.665,377.585 380.5,372C 377.833,358.333 377.833,344.667 380.5,331C 371.665,325.415 362.665,320.081 353.5,315C 351.934,313.316 350.934,311.316 350.5,309C 357.192,285.682 368.859,265.348 385.5,248C 388.03,246.578 390.697,246.245 393.5,247C 400.833,251.333 408.167,255.667 415.5,260C 417.365,261.301 419.365,261.635 421.5,261C 431.43,252.197 442.763,245.697 455.5,241.5C 456.332,230.181 456.832,218.848 457,207.5C 457.833,206.667 458.667,205.833 459.5,205C 483.966,198.738 508.3,199.071 532.5,206C 533.126,206.75 533.626,207.584 534,208.5C 534.168,219.515 534.668,230.515 535.5,241.5C 548.441,246.633 560.441,253.3 571.5,261.5C 580.291,256.937 588.958,252.103 597.5,247C 600.303,246.245 602.97,246.578 605.5,248C 620.81,264.455 632.143,283.289 639.5,304.5 Z M 489.5,303.5 C 518.779,303.043 536.612,317.043 543,345.5C 543.933,374.804 530.1,392.637 501.5,399C 472.196,399.933 454.363,386.1 448,357.5C 447.177,328.115 461.01,310.115 489.5,303.5 Z"/></g>
<g><path style="opacity:0.994" fill="#fe0000" d="M 420.5,511.5 C 288.833,511.5 157.167,511.5 25.5,511.5C 12.5,507.167 3.83333,498.5 -0.5,485.5C -0.5,476.5 -0.5,467.5 -0.5,458.5C 10.827,384.002 52.1603,334.502 123.5,310C 133.66,307.101 143.993,305.101 154.5,304C 200.5,303.333 246.5,303.333 292.5,304C 301.684,305.004 310.684,306.837 319.5,309.5C 321.192,327.189 330.192,339.522 346.5,346.5C 347.833,349.833 347.833,353.167 346.5,356.5C 324.688,366.457 316.522,383.124 322,406.5C 330.467,432.45 343.801,455.45 362,475.5C 379.93,490.701 398.43,491.367 417.5,477.5C 419.996,478.58 422.33,479.914 424.5,481.5C 424.822,490.024 426.155,498.357 428.5,506.5C 428.167,507.167 427.833,507.833 427.5,508.5C 424.984,509.33 422.65,510.33 420.5,511.5 Z"/></g>
</svg>
