<?xml version="1.0" encoding="UTF-8"?>
<!DOCTYPE svg PUBLIC "-//W3C//DTD SVG 1.1//EN" "http://www.w3.org/Graphics/SVG/1.1/DTD/svg11.dtd">
<svg xmlns="http://www.w3.org/2000/svg" version="1.1" width="640px" height="512px" style="shape-rendering:geometricPrecision; text-rendering:geometricPrecision; image-rendering:optimizeQuality; fill-rule:evenodd; clip-rule:evenodd" xmlns:xlink="http://www.w3.org/1999/xlink">
<g><path style="opacity:0.991" fill="#fe0000" d="M 207.5,-0.5 C 218.167,-0.5 228.833,-0.5 239.5,-0.5C 293.548,8.7041 329.382,39.3708 347,91.5C 360.961,152.646 342.461,201.146 291.5,237C 255.526,257.471 217.859,261.138 178.5,248C 119.218,221.969 91.7184,176.469 96,111.5C 104.882,57.283 135.382,21.4497 187.5,4C 194.259,2.28494 200.925,0.784944 207.5,-0.5 Z"/></g>
<g><path style="opacity:0.985" fill="#fe0000" d="M 639.5,287.5 C 639.5,297.833 639.5,308.167 639.5,318.5C 633.132,383.406 605.465,437.24 556.5,480C 539.007,494.68 519.34,505.18 497.5,511.5C 496.167,511.5 494.833,511.5 493.5,511.5C 470.927,504.544 450.594,493.378 432.5,478C 374.288,425.736 348.121,360.57 354,282.5C 357.214,277.618 361.381,273.785 366.5,271C 404.833,256 443.167,241 481.5,226C 491.947,222.465 502.281,222.798 512.5,227C 549.833,241.667 587.167,256.333 624.5,271C 631.496,274.822 636.496,280.322 639.5,287.5 Z M 495.5,273.5 C 526.849,285.562 558.182,297.729 589.5,310C 586.456,367.016 562.456,413.016 517.5,448C 510.831,452.67 503.831,456.837 496.5,460.5C 495.5,398.17 495.167,335.837 495.5,273.5 Z"/></g>
<g><path style="opacity:0.995" fill="#fe0000" d="M 419.5,511.5 C 288.167,511.5 156.833,511.5 25.5,511.5C 12.5,507.167 3.83333,498.5 -0.5,485.5C -0.5,476.167 -0.5,466.833 -0.5,457.5C 11.289,383.541 52.6224,334.374 123.5,310C 133.66,307.101 143.993,305.101 154.5,304C 203.192,303.039 251.858,303.372 300.5,305C 307.123,306.124 313.623,307.624 320,309.5C 324.996,391.666 359.162,458.499 422.5,510C 421.263,510.232 420.263,510.732 419.5,511.5 Z"/></g>
</svg>
